<svg width="394" height="352" viewBox="0 0 394 352" fill="none" xmlns="http://www.w3.org/2000/svg">
<path d="M96.5572 321.008C90.4063 319.033 83.0118 323.617 77.083 321.008" stroke="black" stroke-width="0.325976" stroke-miterlimit="10"/>
<path d="M310.8 316.068C316.453 292.65 301.074 262.7 288.913 244.052C284.148 236.74 270.798 220.465 275.275 210.871C280.063 200.61 297.676 214.472 302.719 220.01C314.165 232.581 317.885 249.75 324.82 263.425C326.64 237.924 316.016 217.35 299.566 198.98C288.826 186.982 252.178 151.473 268.02 133.87C281.463 118.936 303.682 141.035 310.607 152.669C319.844 168.194 324.171 185.35 329.724 199.707C329.832 187.111 326.243 174.216 324.995 161.57C323.695 148.362 323.445 134.296 322.804 121.127C322.341 111.611 319.813 36.6692 343.764 55.8105C351.292 61.8257 352.01 80.666 351.982 89.5805C351.809 145.393 341.005 174.862 339.329 198.517C346.403 188.272 350.55 176.018 359.499 167.033C365.533 160.974 385.497 145.944 388.081 161.572C389.531 170.348 382.758 186.865 378.44 194.536C372.082 205.839 351.021 236.797 351.021 236.797C351.021 236.797 396.674 201.325 386.704 232.755C381.064 250.518 368.645 264.282 352.046 271.62C357.939 271.84 368.802 262.968 370.771 271.622C372.131 277.579 363.396 283.485 359.499 286.722C354.852 290.584 326.869 310.49 335.248 316.068H310.8Z" fill="#F9DDBF"/>
<path d="M220.445 113.057C220.445 175.501 171.097 226.116 110.222 226.116C49.3457 226.116 0 175.501 0 113.057C0 50.6182 49.3457 6.10352e-05 110.222 6.10352e-05C171.097 6.10352e-05 220.445 50.6182 220.445 113.057Z" fill="#F9DDBF"/>
<path d="M334.151 315.302C336.815 319.262 351.477 311.945 356.405 313.005C360.83 313.958 363.82 316.568 368.799 315.459C372.568 314.617 376.293 311.798 380.205 310.594C384.053 309.415 389.073 309.008 393 310.294" stroke="black" stroke-width="0.325976" stroke-miterlimit="10"/>
<path d="M311.339 315.872C306.679 314.354 303.725 317.595 299.519 319.17C294.087 321.202 291.811 317.878 286.859 318.095C283.262 318.254 279.563 322.003 275.762 322.177C273.531 322.279 272.078 320.673 269.582 320.978C267.781 321.2 265.881 322.932 264.046 323.29" stroke="black" stroke-width="0.325976" stroke-miterlimit="10"/>
<path d="M65.397 339.272C72.5078 336.914 76.4281 337.149 83.7581 338.269C90.4649 339.296 95.1294 335.652 101.563 335.404C108.175 335.149 113.718 338.85 120.479 338.16C127.695 337.42 132.703 338.787 139.953 339.842" stroke="black" stroke-width="0.325976" stroke-miterlimit="10"/>
<path d="M262.912 347.241C268.023 344.569 274.54 345.685 280.16 345.97C286.152 346.279 291.083 344.961 296.866 344.944C302.333 344.93 307.582 345.222 312.986 344.389C318.35 343.56 326.226 345.803 330.792 343.247" stroke="black" stroke-width="0.325976" stroke-miterlimit="10"/>
<path d="M250.536 335.726H304.768V253.485H250.536V335.726Z" fill="#E06714"/>
<path d="M250.536 335.726H304.768V253.485H250.536V335.726Z" stroke="black" stroke-width="0.27871" stroke-miterlimit="10"/>
<path d="M308.986 254.26C308.986 256.655 307.092 258.598 304.757 258.598H251.676C249.341 258.598 247.447 256.655 247.447 254.26V242.295C247.447 239.897 249.341 237.957 251.676 237.957H304.757C307.092 237.957 308.986 239.897 308.986 242.295V254.26Z" fill="#E06714"/>
<path d="M308.986 254.26C308.986 256.655 307.092 258.598 304.757 258.598H251.676C249.341 258.598 247.447 256.655 247.447 254.26V242.295C247.447 239.897 249.341 237.957 251.676 237.957H304.757C307.092 237.957 308.986 239.897 308.986 242.295V254.26Z" stroke="black" stroke-width="0.27871" stroke-miterlimit="10"/>
<path d="M270.152 198.443C267.944 202.257 268.322 205.542 266.82 208.585C265.318 211.631 235.84 212.393 223.528 226.851C221.11 229.69 232.781 243.9 240.593 245.495C248.402 247.09 317.01 247.483 315.55 219.622C314.935 207.841 310.653 201.428 306.587 194.123C297.805 194.123 275.741 194.145 270.152 198.443Z" fill="#292949"/>
<path d="M270.152 198.443C267.944 202.257 268.322 205.542 266.82 208.585C265.318 211.631 235.84 212.393 223.528 226.851C221.11 229.69 232.781 243.9 240.593 245.495C248.402 247.09 317.01 247.483 315.55 219.622C314.935 207.841 310.653 201.428 306.587 194.123C297.805 194.123 275.741 194.145 270.152 198.443V198.443Z" stroke="black" stroke-width="0.27871" stroke-miterlimit="10"/>
<path d="M263.685 334.853C263.685 334.853 243.776 344.519 239.184 345.581C236.353 346.233 236.981 342.594 240.289 340.814C247.28 337.055 254.01 328.54 254.01 328.54L261.185 325.795L263.685 334.853Z" fill="black"/>
<path d="M223.528 226.851C203.127 252.202 252.613 329.526 252.613 329.526L262.625 325.52C262.625 325.52 254.343 277.636 251.705 267.946C247.423 252.202 242.447 241.881 242.447 241.881" fill="#292949"/>
<path d="M223.528 226.851C203.127 252.202 252.613 329.526 252.613 329.526L262.625 325.52C262.625 325.52 254.343 277.636 251.705 267.946C247.423 252.202 242.447 241.881 242.447 241.881" stroke="black" stroke-width="0.27871" stroke-miterlimit="10"/>
<path d="M285.743 335.726C285.743 335.726 278.576 347.756 275.721 350.61C272.866 353.463 268.111 351.635 269.388 347.756C270.705 343.76 277.74 328.54 277.74 328.54L284.92 325.795L285.743 335.726Z" fill="black"/>
<path d="M246.695 230.044C226.291 255.396 276.347 329.526 276.347 329.526L286.358 325.52C286.358 325.52 279.701 274.359 277.654 264.522C274.271 248.277 269.174 241.69 269.174 241.69" fill="#292949"/>
<path d="M246.695 230.044C226.291 255.396 276.347 329.526 276.347 329.526L286.358 325.52C286.358 325.52 279.701 274.359 277.654 264.522C274.271 248.277 269.174 241.69 269.174 241.69" stroke="black" stroke-width="0.27871" stroke-miterlimit="10"/>
<path d="M309.349 116.116C311.321 121.8 321.967 126.636 326.286 134.443C333.52 147.515 329.07 160.963 319.775 166.667C307.842 173.991 287.674 134.243 287.674 134.243C287.661 134.088 287.642 133.938 287.629 133.783C287.27 128.317 287.075 122.807 287.108 117.325C287.123 115.432 287.143 113.539 287.248 111.652C287.29 110.856 287.176 109.232 287.508 108.644C287.508 108.644 295.084 94.9926 299.455 94.4946C306.624 93.6781 303.726 99.9275 309.349 116.116Z" fill="black"/>
<path d="M272.512 93.678C272.512 93.678 266.051 93.691 266.898 101.693C267.265 105.173 272.427 116.116 272.427 116.116L278.215 95.9405L272.512 93.678Z" fill="black"/>
<path d="M306.588 195.665C302.747 202.566 272.04 204.552 269.329 197.166C267.283 191.588 263.779 140.566 265.209 137.619C266.638 134.669 275.983 131.553 275.983 131.553L297.449 131.484C297.449 131.484 303.224 131.614 307.82 136.579C316.225 145.653 310.83 154.894 310.456 166.668C310.034 180.128 310.321 188.958 306.588 195.665Z" fill="#DDDAE8"/>
<path d="M306.588 195.665C302.747 202.566 272.04 204.552 269.329 197.166C267.283 191.588 263.779 140.566 265.209 137.619C266.638 134.669 275.983 131.553 275.983 131.553L297.449 131.484C297.449 131.484 303.224 131.614 307.82 136.579C316.225 145.653 310.83 154.894 310.456 166.668C310.034 180.128 310.321 188.958 306.588 195.665Z" stroke="black" stroke-width="0.27871" stroke-miterlimit="10"/>
<path d="M280.322 125.754L281.236 129.735C281.236 129.735 275.983 131.553 275.062 132.058C274.137 132.563 274.337 144.278 283.427 145.418C297.796 147.223 299.869 138.572 300.783 132.132L292.339 130.133L291.003 123.924C291.003 123.924 296.278 118.97 297.434 113.786C298.698 108.154 297.499 104.971 296.99 98.6969C296.367 90.7977 285.45 92.3901 285.45 92.3901L273.802 90.2081C273.802 90.2081 273.3 94.7593 272.275 97.0501C271.404 99.0015 271.2 101.501 270.837 104.608C270.282 109.42 271.626 115.581 271.611 119.179C271.594 123.193 274.375 125.223 276.367 125.401C278.356 125.579 280.322 125.754 280.322 125.754Z" fill="#FFCACE"/>
<path d="M280.322 125.754L281.236 129.735C281.236 129.735 275.983 131.553 275.062 132.058C274.137 132.563 274.337 144.278 283.427 145.418C297.796 147.223 299.869 138.572 300.783 132.132L292.339 130.133L291.003 123.924C291.003 123.924 296.278 118.97 297.434 113.786C298.698 108.154 297.499 104.971 296.99 98.6969C296.367 90.7977 285.45 92.3901 285.45 92.3901L273.802 90.2081C273.802 90.2081 273.3 94.7593 272.275 97.0501C271.404 99.0015 271.2 101.501 270.837 104.608C270.282 109.42 271.626 115.581 271.611 119.179C271.594 123.193 274.375 125.223 276.367 125.401C278.356 125.579 280.322 125.754 280.322 125.754Z" stroke="black" stroke-width="0.27871" stroke-miterlimit="10"/>
<path d="M319.775 170.682C312.505 202.879 275.751 187.37 275.751 187.37C275.751 187.37 265.687 189.552 264.086 188.699C262.483 187.847 261.74 184.433 263.255 184.161C264.767 183.891 271.301 182.699 272.203 182.71C273.545 182.723 275.484 184.203 275.484 184.203C275.484 184.203 300.782 194.123 309.59 170.682C312.384 170.714 317.135 171.798 319.775 170.682Z" fill="#FFCACE"/>
<path d="M319.775 170.682C312.505 202.879 275.751 187.37 275.751 187.37C275.751 187.37 265.687 189.552 264.086 188.699C262.483 187.847 261.74 184.433 263.255 184.161C264.767 183.891 271.301 182.699 272.203 182.71C273.545 182.723 275.484 184.203 275.484 184.203C275.484 184.203 300.782 194.123 309.59 170.682C312.384 170.714 317.135 171.798 319.775 170.682Z" stroke="black" stroke-width="0.27871" stroke-miterlimit="10"/>
<path d="M300.787 157.63C306.586 160.615 306.164 168.064 307.736 170.682C307.951 170.785 314.87 175.15 320.719 170.155C324.614 151.32 310.431 134.589 301.535 132.662" fill="#DDDAE8"/>
<path d="M300.787 157.63C306.586 160.615 306.164 168.064 307.736 170.682C307.951 170.785 314.87 175.15 320.719 170.155C324.614 151.32 310.431 134.589 301.535 132.662" stroke="black" stroke-width="0.27871" stroke-miterlimit="10"/>
<path d="M289.489 86.1855C293.12 86.6053 297.084 89.5901 299.455 94.4958C301.862 99.4712 300.556 102.334 298.982 110.331C297.2 119.377 296.428 124.374 295.563 124.69C294.386 125.116 290.893 125.394 290.706 123.872C290.522 122.349 291.436 121.054 291.97 118.559C293.016 113.675 290.963 111.51 290.963 111.51C290.963 111.51 289.304 115.748 288.061 112.885C287.221 110.943 287.707 108.434 286.326 107.377C280.288 106.483 270.426 108.18 268.657 102.04C267.348 100.974 267.37 91.1499 272.422 89.2942C277.474 87.4385 286.08 85.7939 289.489 86.1855Z" fill="black"/>
<path d="M290.019 113.529C290.146 115.69 291.34 115.207 292.842 115.111C294.345 115.017 295.452 113.186 295.323 111.023C295.189 108.863 293.467 108.443 291.968 108.537C290.466 108.628 289.885 111.369 290.019 113.529Z" fill="#FFCACE"/>
<path d="M280.322 125.49C285.253 124.892 288.155 122.016 288.155 122.016C288.155 122.016 286.032 128.427 281.434 129.961C281.082 128.436 280.322 125.49 280.322 125.49Z" fill="black"/>
<path d="M257.048 182.312C247.216 193.801 227.504 198.448 227.504 198.448C227.504 198.448 219.574 205.166 217.769 205.172C215.962 205.179 213.765 202.509 214.982 201.548C216.199 200.586 221.449 196.427 222.255 196.007C223.449 195.382 225.839 195.767 225.839 195.767C225.839 195.767 244.743 189.258 253.207 175.585C254.875 177.841 255.994 179.706 257.048 182.312Z" fill="#FFCACE"/>
<path d="M257.048 182.312C247.216 193.801 227.504 198.448 227.504 198.448C227.504 198.448 219.574 205.166 217.769 205.172C215.962 205.179 213.765 202.509 214.982 201.548C216.199 200.586 221.449 196.427 222.255 196.007C223.449 195.382 225.839 195.767 225.839 195.767C225.839 195.767 244.743 189.258 253.207 175.585C254.875 177.841 255.994 179.706 257.048 182.312Z" stroke="black" stroke-width="0.27871" stroke-miterlimit="10"/>
<path d="M269.173 134.442C259.733 136.957 258.053 151.975 257.858 154.263C257.251 161.375 255.665 171.5 251.703 177.639C252.248 180.304 255.181 183.933 257.048 184.4C263.464 178.379 263.324 177.796 266.819 172.244" fill="#DDDAE8"/>
<path d="M269.173 134.442C259.733 136.957 258.053 151.975 257.858 154.263C257.251 161.375 255.665 171.5 251.703 177.639C252.248 180.304 255.181 183.933 257.048 184.4C263.464 178.379 263.324 177.796 266.819 172.244" stroke="black" stroke-width="0.27871" stroke-miterlimit="10" stroke-linecap="round" stroke-linejoin="round"/>
<path d="M246.694 230.045C257.844 219.907 273.579 216.391 273.579 216.391" stroke="black" stroke-width="0.27871" stroke-miterlimit="10"/>
<path d="M271.27 215.571C275.463 217.237 279.656 217.205 279.656 217.205" stroke="black" stroke-width="0.27871" stroke-miterlimit="10" stroke-linecap="round"/>
<path d="M262.625 325.52C262.625 325.52 252.077 305.619 247.447 290.208C242.817 274.799 242.115 263.232 243.163 258.598C252.075 288.156 257.049 295.949 257.049 295.949L262.625 325.52Z" fill="black"/>
<path d="M287.104 284.891L285.742 320.828L276.241 258.598H288.688L287.104 284.891Z" fill="black"/>
<path d="M98.8173 151.642C99.1855 152.427 98.51 153.543 97.308 154.139C96.1061 154.735 94.8329 154.581 94.4628 153.796C94.0946 153.012 94.7695 151.894 95.9721 151.3C97.174 150.704 98.4478 150.859 98.8173 151.642Z" fill="black"/>
<path d="M98.5693 151.87V143.142" stroke="black" stroke-width="0.27871" stroke-miterlimit="10"/>
<path d="M104.252 149.86C104.621 150.643 103.946 151.762 102.743 152.355C101.541 152.952 100.268 152.799 99.8989 152.014C99.5294 151.231 100.205 150.113 101.408 149.516C102.61 148.923 103.883 149.075 104.252 149.86Z" fill="black"/>
<path d="M104.005 150.089V141.36" stroke="black" stroke-width="0.27871" stroke-miterlimit="10"/>
<path d="M104.224 143.001L98.3438 145.724V142.938L104.224 140.216V143.001Z" fill="black"/>
<path d="M104.224 144.363L98.3438 147.084V146.368L104.224 143.647V144.363Z" fill="black"/>
<path d="M334.337 184.569C334.705 185.355 334.03 186.473 332.827 187.067C331.625 187.663 330.35 187.508 329.981 186.725C329.613 185.94 330.289 184.822 331.493 184.228C332.693 183.631 333.968 183.786 334.337 184.569Z" fill="black"/>
<path d="M334.087 184.798V176.07" stroke="black" stroke-width="0.278711" stroke-miterlimit="10"/>
<path d="M339.772 182.788C340.141 183.572 339.464 184.69 338.264 185.286C337.061 185.88 335.787 185.728 335.417 184.942C335.049 184.159 335.727 183.041 336.927 182.445C338.13 181.851 339.404 182.003 339.772 182.788Z" fill="black"/>
<path d="M339.525 183.017V174.289" stroke="black" stroke-width="0.27871" stroke-miterlimit="10"/>
<path d="M339.743 175.928L333.864 178.652V175.865L339.743 173.144V175.928Z" fill="black"/>
<path d="M339.743 177.29L333.864 180.012V179.296L339.743 176.574V177.29Z" fill="black"/>
<path d="M234.02 123.802C234.39 124.587 233.713 125.706 232.51 126.302C231.31 126.893 230.035 126.741 229.666 125.958C229.297 125.173 229.974 124.054 231.176 123.461C232.377 122.864 233.651 123.019 234.02 123.802Z" fill="black"/>
<path d="M233.771 124.031V115.302" stroke="black" stroke-width="0.27871" stroke-miterlimit="10"/>
<path d="M239.455 122.02C239.825 122.803 239.148 123.922 237.945 124.518C236.743 125.112 235.47 124.959 235.101 124.174C234.732 123.391 235.409 122.273 236.611 121.679C237.814 121.083 239.086 121.235 239.455 122.02Z" fill="black"/>
<path d="M239.208 122.249V113.521" stroke="black" stroke-width="0.27871" stroke-miterlimit="10"/>
<path d="M239.426 115.163L233.547 117.885V115.1L239.426 112.376V115.163Z" fill="black"/>
<path d="M239.426 116.523L233.547 119.244V118.531L239.426 115.807V116.523Z" fill="black"/>
<path d="M251.163 74.3574C251.532 75.1428 250.855 76.2609 249.655 76.857C248.452 77.4509 247.18 77.2965 246.809 76.5133C246.44 75.728 247.116 74.6098 248.319 74.0158C249.521 73.4198 250.794 73.5742 251.163 74.3574Z" fill="black"/>
<path d="M250.917 74.5858V65.8577" stroke="black" stroke-width="0.27871" stroke-miterlimit="10"/>
<path d="M256.599 72.5757C256.968 73.361 256.294 74.4792 255.091 75.0732C253.889 75.6671 252.616 75.5148 252.247 74.7316C251.876 73.9462 252.553 72.828 253.755 72.2341C254.958 71.638 256.23 71.7903 256.599 72.5757Z" fill="black"/>
<path d="M256.353 72.8041V64.076" stroke="black" stroke-width="0.27871" stroke-miterlimit="10"/>
<path d="M256.572 65.7185L250.69 68.4401V65.6554L256.572 62.9317V65.7185Z" fill="black"/>
<path d="M256.572 67.0782L250.69 69.7998V69.0862L256.572 66.3625V67.0782Z" fill="black"/>
<path d="M157.469 55.2393C158.186 55.707 158.186 57.0232 157.471 58.1784C156.755 59.3336 155.594 59.8927 154.877 59.4249C154.161 58.9594 154.159 57.6432 154.876 56.488C155.591 55.3306 156.753 54.7737 157.469 55.2393Z" fill="black"/>
<path d="M157.377 55.5677L152.891 48.1515" stroke="black" stroke-width="0.27871" stroke-miterlimit="10"/>
<path d="M161.172 50.7859C161.888 51.2514 161.889 52.5676 161.174 53.7228C160.457 54.8802 159.297 55.4371 158.579 54.9715C157.863 54.5038 157.863 53.1876 158.578 52.0324C159.294 50.8772 160.455 50.3181 161.172 50.7859Z" fill="black"/>
<path d="M161.079 51.1143L156.593 43.6981" stroke="black" stroke-width="0.278709" stroke-miterlimit="10"/>
<path d="M157.622 44.9728L154.025 50.4668L152.593 48.1L156.19 42.606L157.622 44.9728Z" fill="black"/>
<path d="M158.321 46.1324L154.724 51.6252L154.355 51.0171L157.953 45.5243L158.321 46.1324Z" fill="black"/>
<path d="M82.6046 106.278C82.9728 107.064 82.2973 108.182 81.0954 108.778C79.8934 109.372 78.6202 109.218 78.2501 108.434C77.8813 107.649 78.557 106.531 79.7596 105.937C80.9613 105.341 82.2352 105.495 82.6046 106.278Z" fill="black"/>
<path d="M82.3564 106.507V97.7787" stroke="black" stroke-width="0.27871" stroke-miterlimit="10"/>
<path d="M215.505 109.044C216.351 109.122 216.936 110.292 216.815 111.656C216.692 113.02 215.91 114.06 215.063 113.98C214.217 113.901 213.632 112.731 213.753 111.367C213.876 110.005 214.66 108.963 215.505 109.044Z" fill="black"/>
<path d="M215.567 109.376L208.273 104.884" stroke="black" stroke-width="0.27871" stroke-miterlimit="10"/>
<path d="M307.719 69.4104C308.566 69.4887 309.151 70.6591 309.03 72.0231C308.907 73.385 308.124 74.4271 307.278 74.3466C306.432 74.2661 305.847 73.0978 305.967 71.7338C306.09 70.3698 306.875 69.3299 307.719 69.4104Z" fill="black"/>
<path d="M307.784 69.7432L300.49 65.2508" stroke="black" stroke-width="0.27871" stroke-miterlimit="10"/>
<path d="M77.6625 193.879C77.7302 194.747 76.7062 195.537 75.3755 195.648C74.0459 195.756 72.9121 195.141 72.844 194.273C72.7763 193.405 73.8003 192.613 75.1312 192.504C76.4612 192.395 77.5951 193.011 77.6625 193.879Z" fill="black"/>
<path d="M77.3521 193.999L80.4276 185.862" stroke="black" stroke-width="0.27871" stroke-miterlimit="10"/>
<path d="M109.275 64.448C109.643 65.2312 108.967 66.3516 107.765 66.9455C106.564 67.5416 105.29 67.3871 104.92 66.604C104.552 65.8186 105.227 64.7004 106.43 64.1065C107.632 63.5104 108.906 63.6649 109.275 64.448Z" fill="black"/>
<path d="M109.027 64.6765V55.9484" stroke="black" stroke-width="0.27871" stroke-miterlimit="10"/>
<path d="M110.907 59.8469C109.888 59.8469 110.08 58.5286 109.723 58.5286C109.365 58.5286 108.834 58.5286 108.834 58.5286V55.7439C108.834 55.7439 109.475 55.7439 109.971 55.7439C110.466 55.7439 110.053 58.8766 110.907 58.8766C111.761 58.8766 111.926 59.8469 110.907 59.8469Z" fill="black"/>
<path d="M195.106 73.0913C195.878 73.4525 196.056 74.7556 195.502 76.0021C194.949 77.2487 193.873 77.9644 193.101 77.6055C192.329 77.2444 192.151 75.9412 192.705 74.6947C193.258 73.4481 194.334 72.7302 195.106 73.0913Z" fill="black"/>
<path d="M195.059 73.4285L189.616 66.7192" stroke="black" stroke-width="0.27871" stroke-miterlimit="10"/>
<path d="M193.493 68.4836C192.708 69.1515 192.036 68.0137 191.76 68.2464C191.485 68.4814 191.077 68.8295 191.077 68.8295L189.34 66.6888C189.34 66.6888 189.835 66.2689 190.214 65.9426C190.596 65.6184 192.229 68.2965 192.887 67.7352C193.542 67.1761 194.276 67.8135 193.493 68.4836Z" fill="black"/>
<path d="M327.15 99.0623C327.921 99.4246 328.1 100.726 327.547 101.972C326.993 103.22 325.918 103.935 325.145 103.575C324.374 103.215 324.196 101.912 324.747 100.666C325.3 99.4202 326.375 98.7023 327.15 99.0623Z" fill="black"/>
<path d="M327.101 99.3992L321.659 92.6919" stroke="black" stroke-width="0.278712" stroke-miterlimit="10"/>
<path d="M325.535 94.4543C324.753 95.1224 324.078 93.9839 323.804 94.2191C323.527 94.4543 323.118 94.8015 323.118 94.8015L321.385 92.6608C321.385 92.6608 321.875 92.2389 322.257 91.9158C322.638 91.5905 324.273 94.2674 324.929 93.707C325.587 93.1466 326.319 93.7861 325.535 94.4543Z" fill="black"/>
<path d="M107.831 341.784C107.998 346.555 113.727 348.063 114.152 341.784C114.577 335.504 120.473 248.347 120.473 248.347H107.831C107.831 248.347 107.663 337.011 107.831 341.784Z" fill="black"/>
<path d="M127.856 335.726C127.998 339.757 132.84 341.034 133.2 335.726C133.558 330.418 138.543 256.744 138.543 256.744H127.856C127.856 256.744 127.714 331.692 127.856 335.726Z" fill="black"/>
<path d="M175.151 335.726C175.009 339.757 170.167 341.034 169.808 335.726C169.449 330.418 164.464 256.744 164.464 256.744H175.151C175.151 256.744 175.293 331.692 175.151 335.726Z" fill="black"/>
<path d="M192.049 341.784C191.881 346.555 186.153 348.065 185.728 341.784C185.302 335.504 179.406 248.347 179.406 248.347H192.049C192.049 248.347 192.216 337.014 192.049 341.784Z" fill="black"/>
<path d="M142.743 250.042C142.743 250.042 178.145 241.794 174.345 233.114C170.545 224.432 149.745 220.894 141.95 221.795C137.443 222.315 125.604 217.381 119.137 217.903C114.418 218.282 101.169 232.512 100.808 234.759C99.9515 240.084 142.743 250.042 142.743 250.042Z" fill="black"/>
<path d="M170.123 220.96C165.743 228.831 120.109 226.779 117.017 218.356C115.657 214.651 117.969 190.303 119.239 178.424C120.508 166.546 119.332 151.02 122.076 147.532C129.288 138.371 138.701 138.371 138.701 138.371H150.877C150.877 138.371 159.823 140.773 165.067 146.434C174.654 156.785 169.052 167.36 168.075 180.759C165.529 215.662 174.382 213.308 170.123 220.96Z" fill="#8CABEF"/>
<path d="M170.123 220.96C165.743 228.831 120.109 226.779 117.017 218.356C115.657 214.651 117.969 190.303 119.239 178.424C120.508 166.546 119.332 151.02 122.076 147.532C129.288 138.371 138.701 138.371 138.701 138.371H150.877C150.877 138.371 159.823 140.773 165.067 146.434C174.654 156.785 169.052 167.36 168.075 180.759C165.529 215.662 174.382 213.308 170.123 220.96V220.96Z" stroke="black" stroke-width="0.27871" stroke-miterlimit="10"/>
<path d="M119.867 175.059C115.392 178.514 115.206 189.922 113.779 197.084C112.035 205.831 97.7379 204.983 99.3651 186.163C102.11 154.42 125.027 143.353 128.992 141.43" fill="#8CABEF"/>
<path d="M119.867 175.059C115.392 178.514 115.206 189.922 113.779 197.084C112.035 205.831 97.7379 204.983 99.3651 186.163C102.11 154.42 125.027 143.353 128.992 141.43" stroke="black" stroke-width="0.27871" stroke-miterlimit="10" stroke-linecap="round" stroke-linejoin="round"/>
<path d="M108.252 186.652C106.585 183.226 100.159 177.537 100.159 177.537L93.372 175.47C93.372 175.47 92.6376 197.882 105.447 202.085" fill="#8CABEF"/>
<path d="M108.252 186.652C106.585 183.226 100.159 177.537 100.159 177.537L93.372 175.47C93.372 175.47 92.6376 197.882 105.447 202.085" stroke="black" stroke-width="0.27871" stroke-miterlimit="10" stroke-linecap="round" stroke-linejoin="round"/>
<path d="M210.546 343.945C209.782 347.251 199.332 346.605 198.081 340.947C197.256 337.222 194.715 325.405 194.919 326.756L196.679 317.874L206.645 315.635C206.645 315.635 211.778 338.586 210.546 343.945Z" fill="black"/>
<path d="M180.432 241.455C182.273 251.765 192.291 278.245 192.808 317.304C192.865 321.605 207.218 318.3 207.218 318.3C207.218 318.3 215.587 252.522 205.784 227.025C202.821 219.319 196.931 212.871 189.001 213.737C179.605 214.762 177.971 227.675 180.432 241.455Z" fill="#292949"/>
<path d="M180.432 241.455C182.273 251.765 192.291 278.245 192.808 317.304C192.865 321.605 207.218 318.3 207.218 318.3C207.218 318.3 215.587 252.522 205.784 227.025C202.821 219.319 196.931 212.871 189.001 213.737C179.605 214.762 177.971 227.675 180.432 241.455V241.455Z" stroke="black" stroke-width="0.27871" stroke-miterlimit="10"/>
<path d="M225.515 255.367C228.684 254.373 227.388 243.718 221.802 242.797C218.126 242.19 206.465 240.348 207.793 240.467L199.262 242.839L197.723 253.183C197.723 253.183 220.383 256.971 225.515 255.367Z" fill="black"/>
<path d="M123.875 231.093C134.024 232.318 160.426 240.881 198.462 238.914C202.649 238.696 200.352 253.598 200.352 253.598C200.352 253.598 136.89 266.371 111.457 257.967C103.77 255.428 97.1198 249.811 97.4545 241.635C97.8513 231.952 110.311 229.455 123.875 231.093Z" fill="#292949"/>
<path d="M123.875 231.093C134.024 232.318 160.426 240.881 198.462 238.914C202.649 238.696 200.352 253.598 200.352 253.598C200.352 253.598 136.89 266.371 111.457 257.967C103.77 255.428 97.1198 249.811 97.4545 241.635C97.8513 231.952 110.311 229.455 123.875 231.093Z" stroke="black" stroke-width="0.27871" stroke-miterlimit="10"/>
<path d="M138.554 131.286L138.701 138.371C138.701 138.371 139.278 143.58 144.681 143.58C150.083 143.58 150.877 138.371 150.877 138.371L150.753 131.982C150.753 131.982 154.469 130.616 156.421 126.243C158.146 122.377 160.261 111.243 160.395 104.066C160.578 95.0268 148.008 95.5381 148.008 95.5381C148.008 95.5381 134.532 94.2611 132.47 101.912C131.033 107.238 131.827 121.685 133.324 126.243C134.548 129.97 138.554 131.286 138.554 131.286Z" fill="#FFCACE"/>
<path d="M138.554 131.286L138.701 138.371C138.701 138.371 139.278 143.58 144.681 143.58C150.083 143.58 150.877 138.371 150.877 138.371L150.753 131.982C150.753 131.982 154.469 130.616 156.421 126.243C158.146 122.377 160.261 111.243 160.395 104.066C160.578 95.0268 148.008 95.5381 148.008 95.5381C148.008 95.5381 134.532 94.2611 132.47 101.912C131.033 107.238 131.827 121.685 133.324 126.243C134.548 129.97 138.554 131.286 138.554 131.286V131.286Z" stroke="black" stroke-width="0.27871" stroke-miterlimit="10"/>
<path d="M157.859 119.817C157.859 119.817 158.283 121.281 160.002 120.804C160.9 120.556 162.137 118.518 162.144 116.046C162.156 111.926 158.864 110.592 157.859 113.716" fill="#FFCACE"/>
<path d="M157.859 119.817C157.859 119.817 158.283 121.281 160.002 120.804C160.9 120.556 162.137 118.518 162.144 116.046C162.156 111.926 158.864 110.592 157.859 113.716" stroke="black" stroke-width="0.27871" stroke-miterlimit="10" stroke-linecap="round"/>
<path d="M132.629 119.817C132.629 119.817 131.714 121.174 130.486 120.774C129.6 120.484 128.351 118.518 128.344 116.046C128.332 111.926 131.624 110.592 132.629 113.716" fill="#FFCACE"/>
<path d="M132.629 119.817C132.629 119.817 131.714 121.174 130.486 120.774C129.6 120.484 128.351 118.518 128.344 116.046C128.332 111.926 131.624 110.592 132.629 113.716" stroke="black" stroke-width="0.27871" stroke-miterlimit="10" stroke-linecap="round"/>
<path d="M137.496 130.82C140.408 131.649 147.989 131.521 147.989 131.521C147.989 131.521 144.493 134.39 142.924 134.51C141.356 134.627 137.496 130.82 137.496 130.82Z" fill="black"/>
<path d="M155.848 87.2081C159.988 87.6889 162.671 94.2893 164.417 98.4946C166.838 104.323 159.599 113.107 159.599 113.107C159.599 113.107 158.482 116.06 157.546 116.046C156.609 116.033 157.7 106.329 155.32 104.843C148.338 108.282 138.817 106.794 136.754 100.285C134.691 93.7738 134.285 89.5381 138.603 87.4235C144.125 84.7172 151.96 86.7599 155.848 87.2081Z" fill="black"/>
<path d="M136.124 89.5402C132.787 87.8607 126.772 92.4336 126.757 99.0362C126.745 104.244 129.453 109.711 131.2 113.716C132.133 115.855 132.809 116.888 133.324 116.914C134.804 116.995 132.153 103.709 138.923 101.046C145.693 98.3858 139.461 91.2175 136.124 89.5402Z" fill="black"/>
<path d="M157.085 184.185C149.859 181.087 133.125 172.912 133.125 172.912C133.125 172.912 126.204 176.599 121.181 188.923C116.157 201.252 115.898 214.129 125.267 218.147C130.76 220.503 135.996 219.789 142.148 222.241C148.299 224.697 148.115 237.861 162.266 243.929C176.93 250.218 191.946 239.269 198.612 222.905C205.283 206.543 200.445 189.358 188.005 184.026C175.128 178.503 165.874 187.953 157.085 184.185Z" fill="#231F20"/>
<path d="M160.538 180.8C153.313 177.7 152.405 172.483 146.913 170.127C137.543 166.109 129.223 174.278 124.199 186.604C119.175 198.931 119.351 210.744 128.722 214.762C134.214 217.118 140.895 213.894 147.047 216.348C153.199 218.804 153.154 233.828 167.306 239.897C179.746 245.232 193.622 235.599 200.292 219.235C206.961 202.87 203.898 185.976 191.459 180.641C178.582 175.118 169.325 184.568 160.538 180.8Z" fill="#E06714"/>
<path d="M160.538 180.8C153.313 177.7 152.405 172.483 146.913 170.127C137.543 166.109 129.223 174.278 124.199 186.604C119.175 198.931 119.351 210.744 128.722 214.762C134.214 217.118 140.895 213.894 147.047 216.348C153.199 218.804 153.154 233.828 167.306 239.897C179.746 245.232 193.622 235.599 200.292 219.235C206.961 202.87 203.898 185.976 191.459 180.641C178.582 175.118 169.325 184.568 160.538 180.8V180.8Z" stroke="black" stroke-width="0.27871" stroke-miterlimit="10" stroke-linecap="round" stroke-linejoin="round"/>
<path d="M158.271 189.115C163.818 191.492 166.433 198.032 164.116 203.721C161.796 209.41 155.422 212.094 149.875 209.717C144.329 207.339 141.713 200.797 144.032 195.108C146.35 189.421 152.725 186.737 158.271 189.115Z" fill="#E06714"/>
<path d="M158.271 189.115C163.818 191.492 166.433 198.032 164.116 203.721C161.796 209.41 155.422 212.094 149.875 209.717C144.329 207.339 141.713 200.797 144.032 195.108C146.35 189.421 152.725 186.737 158.271 189.115V189.115Z" stroke="black" stroke-width="0.27871" stroke-miterlimit="10" stroke-linecap="round" stroke-linejoin="round"/>
<path d="M156.791 192.75C160.381 194.29 162.072 198.519 160.571 202.203C159.072 205.881 154.947 207.619 151.357 206.079C147.769 204.541 146.076 200.31 147.576 196.629C149.077 192.948 153.202 191.212 156.791 192.75Z" fill="#231F20"/>
<path d="M176.551 199.089L169.636 216.054L164.961 214.05L171.876 197.084L176.551 199.089Z" fill="#E06714"/>
<path d="M176.551 199.089L169.636 216.054L164.961 214.05L171.876 197.084L176.551 199.089Z" stroke="black" stroke-width="0.27871" stroke-miterlimit="10" stroke-linecap="round" stroke-linejoin="round"/>
<path d="M167.373 211.805L167.283 212.023C167.041 212.617 167.323 213.319 167.903 213.569C168.481 213.817 169.166 213.528 169.409 212.934L169.497 212.717C169.74 212.123 169.458 211.42 168.878 211.172C168.3 210.924 167.615 211.211 167.373 211.805Z" fill="#231F20"/>
<path d="M168.671 208.009C168.429 208.603 168.71 209.305 169.289 209.556L169.501 209.645C170.08 209.895 170.766 209.606 171.008 209.012C171.249 208.418 170.969 207.715 170.39 207.465L170.177 207.374C169.597 207.126 168.912 207.415 168.671 208.009Z" fill="#231F20"/>
<path d="M170.482 204.178C169.909 205.583 172.034 206.493 172.607 205.087C173.18 203.684 171.055 202.773 170.482 204.178Z" fill="#231F20"/>
<path d="M171.993 200.473C171.419 201.876 173.544 202.79 174.117 201.382C174.689 199.977 172.566 199.065 171.993 200.473Z" fill="#231F20"/>
<path d="M87.5796 163.892L84.5586 171.302L149.499 202.983L153.716 192.635L87.5796 163.892Z" fill="#231F20"/>
<path d="M84.3811 160.046L87.5801 163.892L84.5591 171.302L79.3647 172.35C79.3647 172.35 75.4707 168.941 70.9018 166.983C66.332 165.023 61.3033 164.606 61.3033 164.606L57.3745 159.748L60.1881 152.845L66.3172 152.299C66.3172 152.299 69.9762 155.062 74.9004 157.174C79.822 159.284 84.3811 160.046 84.3811 160.046Z" fill="#231F20"/>
<path d="M71.1058 152.599C71.9272 152.952 72.4931 153.48 72.3703 153.783C72.2474 154.083 71.4826 154.041 70.6614 153.689C69.8389 153.337 69.2735 152.808 69.3948 152.508C69.5182 152.205 70.2839 152.249 71.1058 152.599Z" fill="#231F20"/>
<path d="M70.3985 155.967L71.4498 153.389L70.2449 152.873L69.1948 155.451L70.3985 155.967Z" fill="#231F20"/>
<path d="M80.554 156.567C81.3765 156.922 81.943 157.45 81.8204 157.751C81.697 158.053 80.9326 158.012 80.1108 157.659C79.2883 157.307 78.7209 156.776 78.8452 156.476C78.9665 156.176 79.7339 156.215 80.554 156.567Z" fill="#231F20"/>
<path d="M79.8468 159.935L80.898 157.357L79.6944 156.841L78.6426 159.419L79.8468 159.935Z" fill="#231F20"/>
<path d="M76.1629 154.685C76.9841 155.038 77.5502 155.566 77.4274 155.869C77.3048 156.169 76.5393 156.128 75.7185 155.775C74.8965 155.423 74.33 154.894 74.4534 154.592C74.5756 154.292 75.341 154.333 76.1629 154.685Z" fill="#231F20"/>
<path d="M75.4552 158.053L76.5076 155.475L75.3024 154.957L74.252 157.535L75.4552 158.053Z" fill="#231F20"/>
<path d="M64.8588 167.923C65.6813 168.278 66.4461 168.317 66.5689 168.017C66.6911 167.717 66.1257 167.188 65.3038 166.833C64.4819 166.483 63.7169 166.442 63.5928 166.742C63.4703 167.04 64.0368 167.571 64.8588 167.923Z" fill="#231F20"/>
<path d="M66.6983 165.045L65.6466 167.623L64.4434 167.105L65.4941 164.527L66.6983 165.045Z" fill="#231F20"/>
<path d="M74.25 172.035C75.0706 172.387 75.8376 172.429 75.9604 172.128C76.083 171.826 75.5152 171.297 74.6944 170.945C73.8738 170.593 73.1071 170.551 72.9845 170.851C72.8617 171.154 73.4288 171.685 74.25 172.035Z" fill="#231F20"/>
<path d="M76.0914 169.155L75.0396 171.733L73.8364 171.217L74.8871 168.637L76.0914 169.155Z" fill="#231F20"/>
<path d="M69.8591 170.151C70.681 170.505 71.4454 170.545 71.568 170.242C71.6895 169.942 71.1247 169.413 70.3028 169.063C69.4816 168.711 68.716 168.667 68.5934 168.97C68.4706 169.27 69.0379 169.801 69.8591 170.151Z" fill="#231F20"/>
<path d="M71.6998 167.271L70.6485 169.851L69.4434 169.333L70.4953 166.755L71.6998 167.271Z" fill="#231F20"/>
<path d="M96.6497 169.065C103.411 172.794 102.945 176.201 100.317 179.899C99.3373 181.279 96.4681 178.67 92.5419 176.886C90.6657 176.031 90.3098 173.841 90.8812 172.237C91.8384 169.553 92.8674 166.979 96.6497 169.065Z" fill="#FFCACE"/>
<path d="M96.6497 169.065C103.411 172.794 102.945 176.201 100.317 179.899C99.3373 181.279 96.4681 178.67 92.5419 176.886C90.6657 176.031 90.3098 173.841 90.8812 172.237C91.8384 169.553 92.8674 166.979 96.6497 169.065V169.065Z" stroke="black" stroke-width="0.27871" stroke-miterlimit="10" stroke-linecap="round"/>
<path d="M164.607 187.635C164.895 190.522 165.045 193.413 164.883 196.313C157.803 196.907 152.704 196.966 152.704 196.966L152.321 192.406C152.321 192.406 157.773 190.625 164.607 187.635Z" fill="#FFCACE"/>
<path d="M164.607 187.635C164.895 190.522 165.045 193.413 164.883 196.313C157.803 196.907 152.704 196.966 152.704 196.966L152.321 192.406C152.321 192.406 157.773 190.625 164.607 187.635Z" stroke="black" stroke-width="0.27871" stroke-miterlimit="10"/>
<path d="M153.374 196.953C153.374 196.953 143.641 201.865 141.606 201.548C139.571 201.224 137.552 197.817 139.091 196.955C140.628 196.094 147.26 192.354 148.238 192.028C149.694 191.538 152.643 192.058 154.033 191.819" fill="#FFCACE"/>
<path d="M153.374 196.953C153.374 196.953 143.641 201.865 141.606 201.548C139.571 201.224 137.552 197.817 139.091 196.955C140.628 196.094 147.26 192.354 148.238 192.028C149.694 191.538 152.643 192.058 154.033 191.819" stroke="black" stroke-width="0.27871" stroke-miterlimit="10" stroke-linecap="round"/>
<path d="M164.962 170.651C164.962 170.651 170.171 176.61 169.353 180.287C168.136 185.764 161.119 188.778 161.119 188.778L162.801 197.084C162.801 197.084 184.423 201.482 188.006 184.026C192.889 160.244 162.801 138.635 151.749 138.635" fill="#8CABEF"/>
<path d="M164.962 170.651C164.962 170.651 170.171 176.61 169.353 180.287C168.136 185.764 161.119 188.778 161.119 188.778L162.801 197.084C162.801 197.084 184.423 201.482 188.006 184.026C192.889 160.244 162.801 138.635 151.749 138.635" stroke="black" stroke-width="0.27871" stroke-miterlimit="10" stroke-linecap="round" stroke-linejoin="round"/>
</svg>
