<svg width="20" height="20" viewBox="0 0 20 20" fill="none" xmlns="http://www.w3.org/2000/svg">
<path d="M16.979 20H14.544C14.4212 20 14.3215 19.9075 14.3215 19.7936V18.9678H5.65422V19.7936C5.65422 19.9075 5.55453 20 5.4317 20H2.99673C2.8739 20 2.77421 19.9075 2.77421 19.7936V18.9678H1.56112C0.700283 18.9678 0 18.3181 0 17.5195V1.44821C0 0.64968 0.700283 0 1.56112 0H18.4389C19.2997 0 20 0.64968 20 1.44821V17.5194C20 18.318 19.2997 18.9677 18.4389 18.9677H17.2014V19.7935C17.2015 19.9075 17.1018 20 16.979 20ZM14.7666 19.5871H16.7565V18.9678H14.7666V19.5871ZM3.21925 19.5871H5.20917V18.9678H3.21925V19.5871ZM16.979 18.5549H18.439C19.0544 18.5549 19.5551 18.0904 19.5551 17.5195V1.44821C19.5551 0.877388 19.0544 0.412888 18.439 0.412888H1.56112C0.945726 0.412888 0.445048 0.877388 0.445048 1.44821V17.5194C0.445048 18.0903 0.945726 18.5548 1.56112 18.5548H16.979V18.5549ZM13.9005 17.5872C13.9003 17.5872 13.9 17.5872 13.8997 17.5872H6.0759C6.07546 17.5872 6.07479 17.5872 6.07435 17.5872H2.6181C2.00271 17.5872 1.50204 17.1227 1.50204 16.5518V15.071C1.50204 15.0705 1.50204 15.0701 1.50204 15.0696V8.26778C1.50204 8.26726 1.50204 8.26685 1.50204 8.26633V6.72554C1.50204 6.15462 2.00271 5.69012 2.6181 5.69012H17.3819C17.9973 5.69012 18.498 6.15462 18.498 6.72554V16.5517C18.498 17.1226 17.9973 17.5871 17.3819 17.5871H13.9012C13.901 17.5872 13.9007 17.5872 13.9005 17.5872ZM17.162 17.1743H17.382C17.752 17.1743 18.053 16.895 18.053 16.5518V15.1785L17.321 14.4994L15.8024 15.9082L17.1363 17.1457C17.1459 17.1547 17.1546 17.1642 17.162 17.1743ZM14.4377 17.1743H16.5378L15.4877 16.2001L14.4377 17.1743ZM13.4955 17.1743H13.8084L15.1731 15.9082L13.6546 14.4994L12.136 15.9082L13.4699 17.1457C13.4794 17.1547 13.4881 17.1642 13.4955 17.1743ZM10.7712 17.1743H12.8712L11.8211 16.2001L10.7712 17.1743ZM9.82888 17.1743H10.1468C10.1542 17.1642 10.1629 17.1548 10.1725 17.1458L11.5064 15.9083L9.98776 14.4995L8.46926 15.9082L9.80307 17.1457C9.81275 17.1547 9.82131 17.1642 9.82888 17.1743ZM7.10452 17.1743H9.20448L8.15439 16.2002L7.10452 17.1743ZM6.16736 17.1743H6.48034C6.4878 17.1642 6.49647 17.1548 6.50604 17.1458L7.83985 15.9083L6.32135 14.4995L4.80273 15.9083L6.16736 17.1743ZM3.43788 17.1743H5.53795L4.48786 16.2001L3.43788 17.1743ZM1.94708 15.1558V16.5517C1.94708 16.8949 2.24816 17.1742 2.6181 17.1742H2.81359C2.82105 17.1641 2.82972 17.1547 2.83929 17.1457L4.17321 15.9082L2.6546 14.4994L1.94708 15.1558ZM6.636 14.2075L8.1545 15.6163L9.67311 14.2074L8.15461 12.7985L6.636 14.2075ZM10.3026 14.2074L11.8211 15.6163L13.3396 14.2074L11.8211 12.7986L10.3026 14.2074ZM2.96936 14.2074L4.48786 15.6163L6.00636 14.2074L4.48797 12.7985L2.96936 14.2074ZM13.9692 14.2074L15.4877 15.6163L17.0062 14.2074L15.4877 12.7985L13.9692 14.2074ZM17.6357 14.2074L18.053 14.5947V13.8202L17.6357 14.2074ZM1.94708 13.8428V14.5719L2.33995 14.2073L1.94708 13.8428ZM4.80262 12.5066L6.32112 13.9154L7.83974 12.5065L6.32124 11.0977L4.80262 12.5066ZM15.8023 12.5066L17.3209 13.9154L18.0529 13.2363V11.7745C18.0458 11.7694 18.0389 11.7638 18.0322 11.7576L17.3208 11.0976L15.8023 12.5066ZM1.94708 13.259L2.6546 13.9154L4.17321 12.5066L2.6546 11.0977L1.94708 11.7541V13.259ZM12.1358 12.5066L13.6544 13.9154L15.1729 12.5066L13.6543 11.0977L12.1358 12.5066ZM8.46926 12.5066L9.98776 13.9154L11.5064 12.5066L9.98776 11.0977L8.46926 12.5066ZM13.9692 10.8058L15.4877 12.2147L17.0063 10.8058L15.4877 9.39682L13.9692 10.8058ZM2.96936 10.8058L4.48797 12.2147L6.00648 10.8058L4.48797 9.39682L2.96936 10.8058ZM10.3026 10.8058L11.8211 12.2146L13.3396 10.8058L11.8211 9.39692L10.3026 10.8058ZM6.636 10.8058L8.1545 12.2146L9.67311 10.8058L8.15461 9.39682L6.636 10.8058ZM17.6357 10.8058L18.053 11.193V10.4186L17.6357 10.8058ZM1.94708 10.4412V11.1703L2.33995 10.8058L1.94708 10.4412ZM15.8023 9.10491L17.3209 10.5138L18.0529 9.83469V8.37513L17.3209 7.69603L15.8023 9.10491ZM1.94708 9.8574L2.6546 10.5138L4.17321 9.10491L2.65471 7.69613L1.94708 8.35252V9.8574ZM12.1358 9.10491L13.6543 10.5138L15.1729 9.10491L13.6543 7.69613L12.1358 9.10491ZM4.80262 9.10491L6.32124 10.5137L7.83974 9.10491L6.32124 7.69603L4.80262 9.10491ZM8.46926 9.10491L9.98776 10.5137L11.5064 9.10491L9.98787 7.69603L8.46926 9.10491ZM10.3025 7.40402L11.8211 8.81289L13.3396 7.40412L11.9442 6.1094C11.9419 6.10724 11.9396 6.10517 11.9374 6.1029H11.7048L10.3025 7.40402ZM13.9692 7.40402L15.4877 8.813L17.0062 7.40412L15.6038 6.10311H15.3714L13.9692 7.40402ZM2.96936 7.40412L4.48786 8.81289L6.00648 7.40402L4.60424 6.10301H4.37182L2.96936 7.40412ZM6.636 7.40402L8.15461 8.81279L9.67311 7.40402L8.27077 6.10301H8.03812C8.03589 6.10517 8.03367 6.10734 8.03133 6.10951L6.636 7.40402ZM17.6357 7.40402L18.053 7.79131V7.01683L17.6357 7.40402ZM1.94708 7.03954V7.7686L2.33995 7.40402L1.94708 7.03954ZM1.99326 6.49855L2.6546 7.1121L3.74241 6.10301H2.6181C2.33439 6.10301 2.09128 6.26723 1.99326 6.49855ZM12.5666 6.10301L13.6544 7.1121L14.7421 6.10301H12.5666ZM16.2332 6.10301L17.3209 7.1121L17.9997 6.48235C17.8974 6.25959 17.6589 6.1029 17.3819 6.1029H16.2332V6.10301ZM8.90006 6.10301L9.98776 7.1121L11.0755 6.10301H8.90006ZM5.23354 6.10301L6.32124 7.1121L7.40893 6.10301H5.23354ZM17.7287 4.91089H15.8804C15.7576 4.91089 15.6579 4.81841 15.6579 4.70445V1.50869C15.6579 1.39474 15.7576 1.30225 15.8804 1.30225H17.7287C17.8515 1.30225 17.9512 1.39474 17.9512 1.50869V4.70445C17.9512 4.81851 17.8515 4.91089 17.7287 4.91089ZM16.1028 4.49801H17.5061V1.71514H16.1028V4.49801ZM13.9299 4.91089C13.4686 4.91089 13.0932 4.56273 13.0932 4.13466C13.0932 3.7066 13.4685 3.35843 13.9299 3.35843C14.3913 3.35843 14.7666 3.7066 14.7666 4.13466C14.7666 4.56273 14.3913 4.91089 13.9299 4.91089ZM13.9299 3.77142C13.714 3.77142 13.5382 3.93441 13.5382 4.13477C13.5382 4.33512 13.7139 4.49811 13.9299 4.49811C14.1458 4.49811 14.3215 4.33512 14.3215 4.13477C14.3215 3.93441 14.1458 3.77142 13.9299 3.77142ZM11.386 4.13033C10.7776 4.13033 10.2826 3.67109 10.2826 3.10667C10.2826 2.54226 10.7776 2.08302 11.386 2.08302C11.9944 2.08302 12.4894 2.54226 12.4894 3.10667C12.4894 3.67109 11.9944 4.13033 11.386 4.13033ZM11.386 2.49591C11.0229 2.49591 10.7277 2.76986 10.7277 3.10667C10.7277 3.44349 11.0229 3.71744 11.386 3.71744C11.749 3.71744 12.0443 3.44349 12.0443 3.10667C12.0443 2.76986 11.749 2.49591 11.386 2.49591ZM8.55248 4.13033C7.9441 4.13033 7.4491 3.67109 7.4491 3.10667C7.4491 2.54226 7.9441 2.08302 8.55248 2.08302C9.16086 2.08302 9.65587 2.54226 9.65587 3.10667C9.65587 3.67109 9.16086 4.13033 8.55248 4.13033ZM8.55248 2.49591C8.18943 2.49591 7.89415 2.76986 7.89415 3.10667C7.89415 3.44349 8.18943 3.71744 8.55248 3.71744C8.91553 3.71744 9.21082 3.44349 9.21082 3.10667C9.21082 2.76986 8.91553 2.49591 8.55248 2.49591ZM5.71897 4.13033C5.11059 4.13033 4.61559 3.67109 4.61559 3.10667C4.61559 2.54226 5.11059 2.08302 5.71897 2.08302C6.32736 2.08302 6.82236 2.54226 6.82236 3.10667C6.82236 3.67109 6.32736 4.13033 5.71897 4.13033ZM5.71897 2.49591C5.35593 2.49591 5.06064 2.76986 5.06064 3.10667C5.06064 3.44349 5.35593 3.71744 5.71897 3.71744C6.08202 3.71744 6.37731 3.44349 6.37731 3.10667C6.37731 2.76986 6.08202 2.49591 5.71897 2.49591ZM2.88558 3.8828C2.42429 3.8828 2.04889 3.53463 2.04889 3.10657C2.04889 2.67851 2.42418 2.33034 2.88558 2.33034C3.34698 2.33034 3.72227 2.67851 3.72227 3.10657C3.72227 3.53463 3.34687 3.8828 2.88558 3.8828ZM2.88558 2.74333C2.66973 2.74333 2.49394 2.90632 2.49394 3.10667C2.49394 3.30703 2.66962 3.47002 2.88558 3.47002C3.10154 3.47002 3.27722 3.30703 3.27722 3.10667C3.27722 2.90632 3.10143 2.74333 2.88558 2.74333ZM13.9299 2.85461C13.4686 2.85461 13.0932 2.50644 13.0932 2.07838C13.0932 1.65031 13.4685 1.30215 13.9299 1.30215C14.3913 1.30215 14.7666 1.65031 14.7666 2.07838C14.7666 2.50644 14.3913 2.85461 13.9299 2.85461ZM13.9299 1.71514C13.714 1.71514 13.5382 1.87813 13.5382 2.07848C13.5382 2.27883 13.7139 2.44182 13.9299 2.44182C14.1458 2.44182 14.3215 2.27883 14.3215 2.07848C14.3215 1.87813 14.1458 1.71514 13.9299 1.71514Z" fill="white"/>
</svg>
