<svg width="17" height="20" viewBox="0 0 17 20" fill="none" xmlns="http://www.w3.org/2000/svg">
<path d="M8.08569 20C9.18569 20 10.0857 19.1 10.0857 18H6.08569C6.08569 19.1 6.98569 20 8.08569 20ZM14.0857 14V9C14.0857 5.93 12.4557 3.36 9.58569 2.68V2C9.58569 1.17 8.91569 0.5 8.08569 0.5C7.25569 0.5 6.58569 1.17 6.58569 2V2.68C3.72569 3.36 2.08569 5.92 2.08569 9V14L0.0856934 16V17H16.0857V16L14.0857 14ZM12.0857 15H4.08569V9C4.08569 6.52 5.59569 4.5 8.08569 4.5C10.5757 4.5 12.0857 6.52 12.0857 9V15Z" fill="currentColor"/>
</svg>
