<svg width="40" height="40" viewBox="0 0 40 40" fill="none" xmlns="http://www.w3.org/2000/svg">
<path d="M37.791 0H2.20773C0.989264 0 0 0.987288 0 2.20773V37.791C0 39.0114 0.989264 40 2.20773 40H21.3647V24.5097H16.1523V18.472H21.3647V14.0196C21.3647 8.85398 24.5189 6.03965 29.128 6.03965C31.3377 6.03965 33.2326 6.20497 33.7852 6.27676V11.6762L30.5882 11.6775C28.0821 11.6775 27.5986 12.869 27.5986 14.6163V18.47H33.5777L32.7959 24.507H27.598V39.998H37.7903C39.0101 39.998 40 39.0081 40 37.791V2.20642C39.9993 0.987289 39.0107 0 37.791 0Z" fill="white"/>
</svg>
