<svg width="17" height="17" viewBox="0 0 17 17" fill="none" xmlns="http://www.w3.org/2000/svg">
<path d="M8.5 17L7.2675 15.7771C2.89 11.4507 0 8.59728 0 5.09537C0 2.24196 2.057 0 4.675 0C6.154 0 7.5735 0.750409 8.5 1.93624C9.4265 0.750409 10.846 0 12.325 0C14.943 0 17 2.24196 17 5.09537C17 8.59728 14.11 11.4507 9.7325 15.7864L8.5 17Z" fill="#E06714"/>
<path d="M7.74487 4.22058V9.16811C7.36408 9.00866 6.92521 8.91018 6.45406 8.91018C5.02771 8.91018 3.87244 9.74962 3.87244 10.786C3.87244 11.8224 5.02771 12.6619 6.45406 12.6619C7.88041 12.6619 9.03569 11.8224 9.03569 10.786V6.09642H11.6173V4.22058H7.74487Z" fill="#262A34"/>
</svg>
