<svg width="40" height="40" viewBox="0 0 40 40" fill="none" xmlns="http://www.w3.org/2000/svg">
<g clip-path="url(#clip0)">
<path d="M8.86484 24.1724L7.4725 29.3703L2.38352 29.4779C0.862656 26.657 0 23.4296 0 19.9999C0 16.6835 0.806563 13.556 2.23625 10.8021H2.23734L6.76797 11.6327L8.75266 16.1362C8.33727 17.3472 8.11086 18.6472 8.11086 19.9999C8.11102 21.4681 8.37695 22.8747 8.86484 24.1724Z" fill="#FBBB00"/>
<path d="M39.6507 16.2637C39.8804 17.4736 40.0001 18.723 40.0001 20C40.0001 21.4319 39.8496 22.8286 39.5628 24.1758C38.5892 28.7605 36.0452 32.7637 32.5211 35.5967L32.52 35.5956L26.8134 35.3044L26.0058 30.2626C28.3442 28.8912 30.1717 26.7451 31.1344 24.1758H20.4398V16.2637H31.2904H39.6507Z" fill="#518EF8"/>
<path d="M32.5197 35.5957L32.5208 35.5968C29.0933 38.3517 24.7394 40.0001 19.9999 40.0001C12.3834 40.0001 5.76147 35.743 2.38342 29.4781L8.86475 24.1727C10.5537 28.6803 14.9021 31.8892 19.9999 31.8892C22.1911 31.8892 24.2439 31.2968 26.0054 30.2627L32.5197 35.5957Z" fill="#28B446"/>
<path d="M32.7659 4.60437L26.2868 9.90875C24.4637 8.76922 22.3087 8.11094 20 8.11094C14.7868 8.11094 10.3571 11.467 8.75269 16.1362L2.2373 10.8022H2.23621C5.5648 4.38461 12.2703 0 20 0C24.8527 0 29.3021 1.72859 32.7659 4.60437Z" fill="#F14336"/>
</g>
<defs>
<clipPath id="clip0">
<rect width="40" height="40" fill="white"/>
</clipPath>
</defs>
</svg>
