<svg width="60" height="61" viewBox="0 0 60 61" fill="none" xmlns="http://www.w3.org/2000/svg">
<path d="M10.9998 39.8406C10.6219 39.463 10.0093 39.4627 9.63132 39.8406C9.25343 40.2186 9.25343 40.8312 9.63132 41.2091L18.7911 50.369C18.9801 50.5579 19.2276 50.6523 19.4754 50.6523C19.7229 50.6523 19.9707 50.5579 20.1597 50.369C20.5375 49.991 20.5375 49.3784 20.1597 49.0005L10.9998 39.8406Z" fill="white"/>
<path d="M59.917 6.89332C59.9429 6.78159 60.5247 4.13148 58.1968 1.80338C55.8687 -0.52458 53.2187 0.0568951 53.1069 0.0832144C52.9306 0.123983 52.7693 0.213649 52.6414 0.341504L52.2698 0.71307L52.0417 0.48497C51.6637 0.107211 51.0512 0.107082 50.6734 0.485099C50.2955 0.862986 50.2955 1.47568 50.6735 1.85344L50.9015 2.08141L49.8711 3.11173L49.643 2.88363C49.265 2.50587 48.6526 2.50575 48.2747 2.88376C47.8968 3.26165 47.8968 3.87435 48.2748 4.2521L48.5028 4.48008L47.4725 5.5104L47.2444 5.2823C46.8664 4.90454 46.2538 4.90454 45.8759 5.2823C45.498 5.66031 45.498 6.27288 45.8759 6.65077L46.2951 7.06994L44.8476 9.9648L34.4275 19.9954C32.2932 18.3486 28.0767 15.958 23.6847 18.309C20.757 19.8721 19.9775 21.8638 19.2899 23.621C18.7419 25.0212 18.2687 26.2304 16.7877 27.3278C16.0989 27.8376 14.8272 28.0911 13.3546 28.3847C9.67572 29.118 4.63739 30.1222 1.32658 36.2422C-2.61769 43.5347 3.23086 50.6034 5.93155 53.307L6.69777 54.072C8.75067 56.1248 13.3298 60.0016 18.6157 60.0016C20.2788 60.0014 22.0118 59.6176 23.7581 58.6727C29.8783 55.362 30.8827 50.3248 31.6159 46.6469C31.9094 45.1747 32.1629 43.9032 32.6727 43.2146C33.7698 41.7333 34.9792 41.2598 36.3796 40.7116C38.1371 40.0236 40.1293 39.2437 41.691 36.3169C44.0422 31.9242 41.6509 27.7076 40.0037 25.5733L50.0328 15.1547L52.9306 13.7057L53.3491 14.1241C53.5382 14.313 53.7857 14.4075 54.0333 14.4075C54.2809 14.4075 54.5286 14.313 54.7176 14.124C55.0955 13.7461 55.0955 13.1334 54.7175 12.7557L54.4895 12.5277L55.5198 11.4974L55.7478 11.7254C55.9368 11.9142 56.1845 12.0087 56.4321 12.0087C56.6797 12.0087 56.9274 11.9142 57.1164 11.7254C57.4943 11.3473 57.4943 10.7348 57.1164 10.3569L56.8884 10.1289L57.9186 9.09872L58.1466 9.32669C58.3356 9.51557 58.5833 9.61001 58.8309 9.61001C59.0785 9.61001 59.3262 9.51557 59.5152 9.32669C59.8931 8.94867 59.8931 8.3361 59.5152 7.95822L59.2872 7.73024L59.6587 7.35881C59.7865 7.23082 59.8762 7.06955 59.917 6.89332ZM39.9843 35.4049C38.7585 37.7023 37.3291 38.262 35.6742 38.9098C34.208 39.4838 32.5461 40.1344 31.1174 42.0633C30.3499 43.1002 30.057 44.5684 29.7181 46.2687C29.0231 49.7545 28.1581 54.0925 22.8371 56.9708C16.6853 60.3 10.4582 55.0956 8.06753 52.7051L7.29757 51.9365C4.90626 49.5426 -0.296437 43.3112 3.02856 37.1633C5.90691 31.8427 10.246 30.9779 13.7328 30.2827C15.4333 29.9438 16.9019 29.6511 17.9393 28.883C19.8677 27.4539 20.518 25.7923 21.0918 24.3265C21.7393 22.6718 22.2986 21.243 24.5968 20.0159C27.8832 18.2567 31.1825 19.9988 33.0157 21.3545L26.7439 27.3918C26.6521 27.3878 26.5602 27.385 26.4678 27.385C24.8192 27.385 23.2709 28.0256 22.1086 29.1878C20.9464 30.3475 20.3065 31.893 20.3069 33.5394C20.3071 35.1857 20.9477 36.731 22.109 37.8889C23.2699 39.0514 24.8161 39.6917 26.4631 39.6917C28.1102 39.6917 29.6558 39.0513 30.813 37.8908C31.9743 36.7344 32.615 35.191 32.6169 33.5446C32.6171 33.4475 32.6145 33.3506 32.6102 33.2542L38.6449 26.9851C40.0009 28.8182 41.7436 32.1177 39.9843 35.4049ZM27.0011 29.3546C27.9263 29.4699 28.7806 29.883 29.4471 30.5483C30.1151 31.2167 30.53 32.0715 30.6466 32.9972C30.6476 33.007 30.6489 33.0168 30.6502 33.0266C30.6705 33.1964 30.6818 33.3684 30.6816 33.5423C30.6802 34.671 30.2419 35.7281 29.445 36.5218C28.6511 37.318 27.592 37.7564 26.463 37.7564C25.3335 37.7564 24.2735 37.3178 23.4768 36.5199C22.6808 35.7262 22.2423 34.6675 22.2421 33.539C22.2419 32.4105 22.68 31.3516 23.4762 30.557C24.2737 29.7596 25.3361 29.3204 26.4678 29.3204C26.6378 29.3204 26.8059 29.3315 26.9721 29.3511C26.9817 29.3523 26.9913 29.3536 27.0011 29.3546ZM32.0801 31.0144C31.7777 30.3395 31.3532 29.7179 30.8151 29.1794C30.2784 28.6439 29.6586 28.2213 28.9855 27.9202L45.6251 11.9025L48.096 14.3764L32.0801 31.0144ZM58.0614 6.21908L57.2369 7.04362C57.236 7.04452 57.2351 7.04517 57.2343 7.04594C57.2334 7.04685 57.2328 7.04775 57.232 7.04852L54.8382 9.44228C54.8373 9.44319 54.8364 9.44383 54.8357 9.44461C54.8348 9.44551 54.8341 9.44641 54.8333 9.44719L52.5459 11.7346L49.6428 13.1862L46.8156 10.3558L48.2676 7.45196L53.7803 1.93924C54.3116 1.90027 55.6109 1.9542 56.8283 3.17173C58.0488 4.39235 58.1002 5.69515 58.0614 6.21908Z" fill="white"/>
</svg>
