<svg width="60" height="60" viewBox="0 0 60 60" fill="none" xmlns="http://www.w3.org/2000/svg">
<path d="M15.4999 8.00006H14.5C13.9477 8.00006 13.5 8.44772 13.5 9.00002C13.5 9.55233 13.9477 9.99998 14.5 9.99998H15.4999C16.0522 9.99998 16.4999 9.55233 16.4999 9.00002C16.4999 8.44772 16.0522 8.00006 15.4999 8.00006Z" fill="white"/>
<path d="M20.4997 8.00006H19.4997C18.9474 8.00006 18.4998 8.44772 18.4998 9.00002C18.4998 9.55233 18.9475 9.99998 19.4997 9.99998H20.4997C21.052 9.99998 21.4996 9.55233 21.4996 9.00002C21.4996 8.44772 21.052 8.00006 20.4997 8.00006Z" fill="white"/>
<path d="M20.4998 42C20.4998 44.2091 22.2906 46 24.4997 46C26.7088 46 28.4998 44.2091 28.4998 42C28.4998 39.7909 26.7089 38.0001 24.4998 38.0001C22.2917 38.0025 20.5023 39.792 20.4998 42ZM26.4998 42C26.4998 43.1046 25.6043 44.0001 24.4997 44.0001C23.3951 44.0001 22.4998 43.1046 22.4998 42C22.4998 40.8954 23.3952 40 24.4998 40C25.6039 40.0012 26.4987 40.8959 26.4998 42Z" fill="white"/>
<path d="M54.4998 3C54.4998 2.68395 54.3504 2.38641 54.0969 2.19773C53.8435 2.00906 53.5156 1.95129 53.2128 2.04199L43.4998 4.95586V3C43.498 1.34391 42.1559 0.00175781 40.4998 0H8.49976C6.84366 0.00175781 5.50151 1.34391 5.49976 3V57C5.50151 58.6561 6.84366 59.9982 8.49976 60H40.4998C42.1559 59.9982 43.498 58.6561 43.4998 57V11.0441L52.4998 8.3441V22.0255C51.6393 21.3641 50.5852 21.0037 49.4998 20.9999C46.7384 20.9999 44.4998 23.2385 44.4998 25.9999C44.4998 28.7613 46.7383 31 49.4998 31C52.2612 31 54.4998 28.7614 54.4998 25.9999C54.4926 25.7766 54.4701 25.5539 54.4325 25.3336C54.4742 25.2272 54.4969 25.1142 54.4998 25V3ZM49.4998 29C47.843 29 46.4998 27.657 46.4998 26C46.4998 24.3431 47.843 23 49.4998 23C51.1566 23 52.4998 24.3432 52.4998 26C52.498 27.6561 51.1559 28.9982 49.4998 29ZM41.4998 57C41.4991 57.552 41.0517 57.9993 40.4998 58H8.49976C7.9478 57.9993 7.5005 57.552 7.49979 57V3C7.5005 2.44805 7.9478 2.00074 8.49976 2.00004H40.4998C41.0517 2.00074 41.4991 2.44805 41.4998 3V5.55586L39.4997 6.15586V6C39.4987 4.89586 38.6038 4.00113 37.4997 3.99996H11.4998C10.3956 4.00102 9.50089 4.89586 9.49972 6V22C9.50077 23.1041 10.3956 23.9988 11.4998 24H32.4998V27.0255C31.6392 26.3641 30.5851 26.0038 29.4998 25.9999C27.1232 26.0033 25.0764 27.6765 24.6004 30.0048C24.5663 30.0045 24.5341 29.9999 24.4998 29.9999C17.8724 29.9999 12.4998 35.3725 12.4998 41.9999C12.4998 48.6273 17.8724 53.9999 24.4998 53.9999C31.1273 53.9999 36.4998 48.6273 36.4998 41.9999C36.5091 39.0558 35.4232 36.2133 33.4533 34.0253C34.1276 33.1605 34.4957 32.0964 34.4998 30.9998V24H37.4998C38.6039 23.9989 39.4987 23.1041 39.4998 22V12.2441L41.4999 11.6441V57H41.4998ZM33.2127 8.04199C32.7897 8.16891 32.4999 8.55832 32.4999 9V22H11.4999V6H37.4998V6.75586L33.2127 8.04199ZM34.4998 13.7441L37.4998 12.8441V22H34.4998V13.7441ZM29.4998 36C30.358 35.9945 31.2 35.7655 31.9428 35.3354C33.5953 37.161 34.5072 39.5375 34.4998 42C34.4998 47.5228 30.0226 52 24.4998 52C18.977 52 14.4999 47.5228 14.4999 42C14.4999 36.4772 18.977 32 24.4998 32C24.5343 32 24.5671 32.0047 24.6014 32.0052C25.0818 34.3289 27.1268 35.9968 29.4998 36ZM26.4998 31C26.4998 29.3432 27.843 28 29.4998 28C31.1567 28 32.4998 29.343 32.4998 31C32.498 32.6561 31.1558 33.9982 29.4998 34C27.843 34 26.4998 32.6569 26.4998 31ZM52.4998 6.25582L34.4998 11.6558V9.74414L52.4998 4.34426V6.25582Z" fill="white"/>
</svg>
