<svg width="285" height="219" viewBox="0 0 285 219" fill="none" xmlns="http://www.w3.org/2000/svg">
<path d="M272.048 192.619H220.231V172.636H230.22C233.801 172.636 236.701 169.741 236.701 166.155C236.701 162.574 233.801 159.685 230.22 159.685H197.279C193.698 159.685 190.798 162.574 190.798 166.155C190.798 169.742 193.698 172.636 197.279 172.636H207.268V192.619H103.64V147.766H155.451C158.03 147.766 160.362 146.232 161.394 143.87C162.415 141.507 161.951 138.761 160.195 136.881L127.272 101.46H142.487C145.06 101.46 147.392 99.933 148.431 97.569C149.452 95.207 148.988 92.461 147.231 90.574L116.899 57.943H132.121C134.7 57.943 137.038 56.422 138.064 54.052C139.085 51.696 138.621 48.944 136.871 47.051L95.426 2.45101C92.971 -0.195991 88.388 -0.195991 85.939 2.45101L44.494 47.051C42.737 48.944 42.273 51.696 43.294 54.052C44.333 56.421 46.659 57.943 49.238 57.943H64.459L34.128 90.574C32.384 92.461 31.908 95.207 32.94 97.569C33.967 99.932 36.305 101.46 38.872 101.46H54.099L21.164 136.881C19.413 138.761 18.943 141.507 19.97 143.87C21.003 146.232 23.335 147.766 25.908 147.766H77.731V192.619H12.951C5.802 192.619 0 198.421 0 205.576C0 212.732 5.802 218.534 12.951 218.534H272.049C279.198 218.534 285 212.732 285 205.576C284.999 198.421 279.197 192.619 272.048 192.619Z" fill="white"/>
</svg>
