<svg width="20" height="20" viewBox="0 0 20 20" fill="none" xmlns="http://www.w3.org/2000/svg">
<path d="M4.49427 19.5H0.5V18.8729C0.5 18.407 0.634229 17.9788 0.859896 17.6281C1.34168 17.9571 1.90555 18.1362 2.49713 18.1362C3.0887 18.1362 3.65258 17.9571 4.13437 17.6281C4.36004 17.9788 4.49427 18.407 4.49427 18.8729V19.5Z" stroke="white"/>
<path d="M11.9957 19.5H8.00146V18.8729C8.00146 18.407 8.13569 17.9788 8.36136 17.6281C8.84315 17.9571 9.40703 18.1362 9.9986 18.1362C10.5902 18.1362 11.154 17.9571 11.6358 17.6281C11.8615 17.9788 11.9957 18.407 11.9957 18.8729V19.5Z" stroke="white"/>
<path d="M17.5024 18.1362C18.0939 18.1362 18.6578 17.9571 19.1396 17.6281C19.3652 17.9788 19.4995 18.407 19.4995 18.8729V19.5H15.5052V18.8729C15.5052 18.407 15.6395 17.9788 15.8651 17.6281C16.3469 17.9571 16.9108 18.1362 17.5024 18.1362Z" stroke="white"/>
<path d="M19.5 0.618822V11.9555C17.4021 11.5518 13.9049 11.294 9.97725 11.294C6.077 11.294 2.60206 11.5483 0.5 11.9468V0.627523C2.60207 1.02607 6.07701 1.28035 9.97725 1.28035C13.9049 1.28035 17.4021 1.02248 19.5 0.618822Z" stroke="white"/>
<path d="M1.78958 16.0349L1.78957 16.0349C1.47923 15.7933 1.2677 15.393 1.2677 14.9288C1.2677 14.148 1.85078 13.5745 2.49912 13.5745C3.14745 13.5745 3.73053 14.148 3.73053 14.9288C3.73053 15.393 3.51899 15.7933 3.20865 16.0349L3.20865 16.0349C3.00521 16.1933 2.76083 16.2832 2.49912 16.2832C2.2374 16.2832 1.99302 16.1933 1.78958 16.0349Z" stroke="white"/>
<path d="M9.28873 16.0349L9.28875 16.0349C9.49219 16.1933 9.73656 16.2832 9.99827 16.2832C10.26 16.2832 10.5044 16.1933 10.7078 16.0349L10.7078 16.0349C11.0181 15.7933 11.2297 15.393 11.2297 14.9288C11.2297 14.148 10.6466 13.5745 9.99825 13.5745C9.34993 13.5745 8.76685 14.148 8.76685 14.9288L9.28873 16.0349ZM9.28873 16.0349C8.9784 15.7933 8.76687 15.393 8.76685 14.9288L9.28873 16.0349Z" stroke="white"/>
<path d="M16.7926 16.0349L16.7926 16.0349C16.996 16.1933 17.2404 16.2832 17.5021 16.2832C17.7638 16.2832 18.0082 16.1933 18.2116 16.0349L18.2116 16.0349C18.522 15.7933 18.7335 15.393 18.7335 14.9288C18.7335 14.148 18.1504 13.5745 17.5021 13.5745C16.8537 13.5745 16.2706 14.148 16.2706 14.9288L16.7926 16.0349ZM16.7926 16.0349C16.4822 15.7933 16.2707 15.393 16.2706 14.9288L16.7926 16.0349Z" stroke="white"/>
</svg>
