<svg width="17" height="18" viewBox="0 0 17 18" fill="none" xmlns="http://www.w3.org/2000/svg">
<path fill-rule="evenodd" clip-rule="evenodd" d="M10.7929 4.19671C12.7455 6.14933 12.7455 9.31515 10.7929 11.2678C8.84024 13.2204 5.67441 13.2204 3.72179 11.2678C1.76917 9.31515 1.76917 6.14933 3.72179 4.19671C5.67441 2.24408 8.84024 2.24408 10.7929 4.19671ZM12.65 12.196C14.9318 9.44601 14.7841 5.35954 12.2071 2.78249C9.4734 0.0488213 5.04125 0.0488211 2.30758 2.78249C-0.426093 5.51616 -0.426093 9.94832 2.30758 12.682C4.7164 15.0908 8.44404 15.3771 11.1663 13.5407L14.6005 16.9749C14.991 17.3654 15.6241 17.3654 16.0147 16.9749C16.4052 16.5844 16.4052 15.9512 16.0147 15.5607L12.65 12.196Z" fill="currentColor"/>
</svg>
