<svg width="17" height="17" viewBox="0 0 17 17" fill="none" xmlns="http://www.w3.org/2000/svg">
<path d="M8.51231 0C3.8179 0 0 3.80556 0 8.5C0 12.1508 2.30901 15.2639 5.54363 16.4678L16.5338 5.71252C15.3832 2.38721 12.2304 0 8.51231 0Z" fill="#E06714"/>
<path d="M17 8.50001C17 7.52377 16.835 6.58625 16.5321 5.71312L14.8958 4.0769L2.12885 11.531L4.00568 13.4079L3.60711 14.5356L5.54237 16.4709C6.46355 16.8128 7.47217 17 8.51231 17C13.2067 17 17 13.1944 17 8.50001Z" fill="#E06714"/>
<path d="M14.8958 4.0769V11.531H8.51227L7.39142 7.80397L8.51227 4.0769H14.8958Z" fill="#262A34"/>
<path d="M8.51231 4.0769V11.531H6.6113L3.60711 14.5356V11.531H2.12885V4.0769H8.51231Z" fill="#262A34"/>
<path d="M14.1567 4.81604V10.7919H8.51229L7.77319 7.80398L8.51229 4.81604H14.1567Z" fill="#262A34"/>
<path d="M8.51225 4.81604H2.86792V10.7919H8.51225V4.81604Z" fill="#262A34"/>
<path d="M13.4087 7.46527L12.6788 8.20884L12.8322 9.23919L11.8998 8.77464L11.5302 7.94127L11.8998 6.36877L12.3813 7.29269L13.4087 7.46527Z" fill="#E06714"/>
<path d="M11.8997 6.36877V8.77464L10.967 9.23919L11.1207 8.20884L10.3908 7.46527L11.4182 7.29269L11.8997 6.36877Z" fill="#E06714"/>
<path d="M10.0211 7.46527L9.29125 8.20884L9.44462 9.23919L8.5122 8.77464L8.14264 7.94127L8.5122 6.36877L8.99375 7.29269L10.0211 7.46527Z" fill="#E06714"/>
<path d="M8.51223 6.36877V8.77464L7.57945 9.23919L7.73319 8.20884L7.0033 7.46527L8.03069 7.29269L8.51223 6.36877Z" fill="#E06714"/>
<path d="M6.63381 7.46527L5.90392 8.20884L6.05729 9.23919L5.12488 8.77464L4.75531 7.94127L5.12488 6.36877L5.60642 7.29269L6.63381 7.46527Z" fill="#E06714"/>
<path d="M5.1249 6.36877V8.77464L4.19212 9.23919L4.34586 8.20884L3.61597 7.46527L4.64336 7.29269L5.1249 6.36877Z" fill="#E06714"/>
</svg>
