<svg width="22" height="19" viewBox="0 0 22 19" fill="none" xmlns="http://www.w3.org/2000/svg">
<mask id="path-1-inside-1" fill="currentColor">
<path fill-rule="evenodd" clip-rule="evenodd" d="M2.1967 2.22181C0.0488211 4.3697 0.0488215 7.85211 2.19671 9.99999L10.3284 18.1317C10.719 18.5222 11.3521 18.5222 11.7426 18.1317L11.7524 18.1219C11.8659 18.0733 11.9723 18.0026 12.065 17.9099L20.1967 9.77816C22.3446 7.63028 22.3446 4.14787 20.1967 1.99999C18.0488 -0.147896 14.5664 -0.147895 12.4185 1.99999L11.0858 3.33273L9.97488 2.22181C7.827 0.0739297 4.34459 0.0739294 2.1967 2.22181Z"/>
</mask>
<path d="M11.7524 18.1219L10.9641 16.2839L10.6104 16.4356L10.3382 16.7077L11.7524 18.1219ZM12.065 17.9099L10.6508 16.4957L10.6508 16.4957L12.065 17.9099ZM20.1967 9.77816L21.6109 11.1924L20.1967 9.77816ZM12.4185 1.99999L11.0043 0.585774L12.4185 1.99999ZM11.0858 3.33273L9.67158 4.74694L11.0858 6.16115L12.5 4.74694L11.0858 3.33273ZM3.61092 8.58578C2.24408 7.21894 2.24408 5.00286 3.61092 3.63603L0.782491 0.8076C-2.14644 3.73653 -2.14644 8.48527 0.782492 11.4142L3.61092 8.58578ZM11.7426 16.7175L3.61092 8.58578L0.782492 11.4142L8.91422 19.5459L11.7426 16.7175ZM10.3284 16.7175C10.719 16.327 11.3521 16.327 11.7426 16.7175L8.91422 19.5459C10.0858 20.7175 11.9853 20.7175 13.1569 19.5459L10.3284 16.7175ZM10.3382 16.7077L10.3284 16.7175L13.1569 19.5459L13.1666 19.5362L10.3382 16.7077ZM10.6508 16.4957C10.7408 16.4056 10.8478 16.3337 10.9641 16.2839L12.5407 19.96C12.884 19.8128 13.2037 19.5996 13.4792 19.3241L10.6508 16.4957ZM18.7825 8.36395L10.6508 16.4957L13.4792 19.3241L21.6109 11.1924L18.7825 8.36395ZM18.7825 3.4142C20.1493 4.78104 20.1493 6.99711 18.7825 8.36395L21.6109 11.1924C24.5398 8.26344 24.5399 3.51471 21.6109 0.585774L18.7825 3.4142ZM13.8327 3.4142C15.1996 2.04737 17.4157 2.04737 18.7825 3.4142L21.6109 0.585774C18.682 -2.34316 13.9332 -2.34316 11.0043 0.585774L13.8327 3.4142ZM12.5 4.74694L13.8327 3.4142L11.0043 0.585774L9.67158 1.91851L12.5 4.74694ZM8.56067 3.63603L9.67158 4.74694L12.5 1.91851L11.3891 0.8076L8.56067 3.63603ZM3.61092 3.63603C4.97775 2.26919 7.19383 2.26919 8.56067 3.63603L11.3891 0.8076C8.46016 -2.12133 3.71142 -2.12133 0.782491 0.8076L3.61092 3.63603Z" fill="currentColor" mask="url(#path-1-inside-1)"/>
</svg>
