<svg width="17" height="16" viewBox="0 0 17 16" fill="none" xmlns="http://www.w3.org/2000/svg">
<path d="M8.08569 1.9C9.24569 1.9 10.1857 2.84 10.1857 4C10.1857 5.16 9.24569 6.1 8.08569 6.1C6.92569 6.1 5.98569 5.16 5.98569 4C5.98569 2.84 6.92569 1.9 8.08569 1.9ZM8.08569 10.9C11.0557 10.9 14.1857 12.36 14.1857 13V14.1H1.98569V13C1.98569 12.36 5.11569 10.9 8.08569 10.9ZM8.08569 0C5.87569 0 4.08569 1.79 4.08569 4C4.08569 6.21 5.87569 8 8.08569 8C10.2957 8 12.0857 6.21 12.0857 4C12.0857 1.79 10.2957 0 8.08569 0ZM8.08569 9C5.41569 9 0.0856934 10.34 0.0856934 13V16H16.0857V13C16.0857 10.34 10.7557 9 8.08569 9Z" fill="currentColor"/>
</svg>
