<svg width="858" height="898" viewBox="0 0 858 898" fill="none" xmlns="http://www.w3.org/2000/svg">
<path d="M783.19 493.65C774.44 453.13 758.01 415.88 735.4 381.27C734.81 380.36 734.09 379.53 733.26 378.44C731.19 379.66 729.28 380.79 727.38 381.93C714.81 389.48 701.29 394.2 686.64 395.38C680.92 395.84 675.14 395.58 669.45 396.21C659.12 397.35 649 396.25 638.99 393.9C580.98 380.26 541.96 322.79 555.43 261.81C564.9 218.9 591.88 191.16 633.59 177.67C634.76 177.29 635.93 176.93 637.68 176.38C635.57 174.25 633.86 172.44 632.06 170.72C608.67 148.33 582.36 130.15 553.2 116.09C551.28 115.16 549.61 114.31 549.01 111.86C545.91 99.0799 544.1 86.2099 546.35 73.0999C549.48 54.8499 558.66 40.7599 575.51 32.3699C579.1 30.5899 583.1 29.4399 587.03 28.5899C593.27 27.2599 598.89 29.5999 604.29 32.4899C614.34 37.8599 622.67 45.3399 629.93 53.9899C654.93 83.7899 667.07 118.58 669.07 157.09C669.85 172.08 668.93 186.95 665.02 201.67C662.07 212.79 659.3 223.92 655.27 234.7C654.41 237.01 653.04 238.74 651.12 240.32C630.18 257.6 621.22 279.75 625.08 306.69C629.62 338.41 657.17 365.87 694.69 365.98C707.68 366.02 719.99 362.66 730.99 355.59C752.49 341.77 763.92 322.01 764.55 296.38C764.95 280.1 759.68 265.54 749.91 252.54C748.87 251.16 747.88 249.41 747.73 247.75C746.98 239.25 746.41 230.73 745.97 222.21C745.22 207.63 743.83 193.13 741.62 178.7C737.93 154.64 732.09 131.17 722.93 108.58C712.55 82.9599 698.54 59.6499 678.59 40.2599C658.7 20.9199 635.44 7.84994 607.95 2.83994C603.42 2.00994 598.84 1.39994 594.29 0.689941C589.24 0.689941 584.19 0.689941 579.14 0.689941C575.86 1.24994 572.58 1.84994 569.29 2.35994C530.46 8.29994 494.75 35.0399 484.45 79.4399C483.5 83.5199 482.89 87.6699 482.03 92.3099C479.85 91.9599 477.71 91.6299 475.56 91.2799C461.56 88.9899 447.5 87.6499 433.29 88.2299C420.23 88.7699 408.14 92.0899 397.64 100.21C396.98 100.72 396.24 101.15 395.57 101.65C391.83 104.47 387.78 105.52 382.99 105.14C363.16 103.55 343.29 102.43 323.47 100.73C318.38 100.29 313.32 98.6499 308.43 97.0299C285.17 89.3299 261.99 81.3699 238.74 73.6399C218.27 66.8399 197.71 60.2999 176.54 55.9999C168.87 54.4399 161.03 53.7599 153.29 52.5799C151.7 52.3399 149.83 52.0399 148.68 51.0699C136.38 40.7399 122.06 34.5899 106.69 30.7099C85.2099 25.2799 63.5399 24.0799 41.7299 28.5699C34.0299 30.1599 26.4499 32.3299 19.4899 36.0399C15.5699 38.1299 11.8399 40.7099 8.37992 43.4999C4.94992 46.2799 2.78993 50.0899 1.72993 54.4599C1.36993 55.9399 0.699922 57.3499 0.169922 58.7899C0.169922 59.3499 0.169922 59.9099 0.169922 60.4699C0.509922 61.2299 1.00992 61.9599 1.16992 62.7499C3.22992 73.1199 8.79992 81.6599 15.2199 89.7199C19.3199 94.8799 23.5999 99.8999 27.8699 104.93C30.4499 107.97 32.4099 111.25 33.4899 115.14C34.6899 119.46 36.3899 123.63 37.5899 127.95C41.0499 140.48 47.5899 151.37 55.3699 161.58C67.7799 177.87 83.1499 190.8 100.7 201.22C102.77 202.45 104.55 203.8 105.77 206.04C112.71 218.73 121.99 229.55 132.69 239.21C147.2 252.3 163.73 261.98 181.45 270.18C244.54 299.36 307.42 329.01 370.35 358.53C385.36 365.57 399.94 373.41 413 383.72C437.24 402.86 456.36 426.33 470.72 453.62C493.3 496.53 507.45 541.99 512.1 590.41C514.86 619.1 516.56 647.75 513.6 676.51C511.96 692.5 508.87 708.15 501.8 722.73C497.52 731.55 493.21 740.39 488.33 748.89C468.54 783.33 444 814.36 418.63 844.74C404.31 861.89 387.92 877.07 371.48 892.16C369.66 893.83 367.84 895.51 366.02 897.19C367.57 897.49 368.76 897.17 369.93 896.82C376.77 894.76 383.62 892.71 390.45 890.64C435.22 877.04 480.11 863.82 524.37 848.58C559.24 836.58 593.67 823.47 626.84 807.26C654.76 793.62 681.37 777.86 705.55 758.19C761.19 712.91 789.26 654.14 791.16 582.68C791.49 570.08 790.99 557.43 790.34 544.83C789.49 527.58 786.83 510.54 783.19 493.65Z" fill="#E06714"/>
<path d="M854.68 392.58C845.21 353.51 829.34 317.2 807.6 283.44C802.5 275.53 796.75 268.1 790.06 261.44C785.33 256.73 779.98 252.97 773.81 250.41C772.86 250.02 771.86 249.77 770.49 249.33C771.47 253.09 772.4 256.3 773.15 259.56C775.11 268.06 776.33 276.66 776.03 285.41C775.9 289.04 775.16 292.66 775.21 296.28C775.47 314.1 771.15 330.69 762.37 346.15C761.76 347.23 761.28 348.39 760.64 349.72C764.58 351.86 768.1 353.57 771.43 355.61C780.72 361.3 788.56 368.71 795.85 376.73C807.22 389.22 816.84 403.02 826.18 417.03C830.92 424.15 835.68 431.26 840.59 438.26C843.14 441.91 844.69 442.15 848.8 440.41C851.65 439.2 853.9 437.19 854.95 434.38C856.16 431.14 857.28 427.71 857.53 424.3C858.32 413.6 857.2 403.02 854.68 392.58Z" fill="#E06714"/>
</svg>
